<svg width="512" height="512" viewBox="0 0 512 512" fill="none" xmlns="http://www.w3.org/2000/svg">
  <!-- Fond orange ArtisScan avec coins arrondis pour iOS/Android -->
  <rect width="512" height="512" rx="110" fill="#f97316"/>
  
  <!-- Dégradé orange pour profondeur -->
  <defs>
    <linearGradient id="orangeGradient" x1="0%" y1="0%" x2="100%" y2="100%">
      <stop offset="0%" stop-color="#f97316" stop-opacity="1"/>
      <stop offset="100%" stop-color="#ea580c" stop-opacity="1"/>
    </linearGradient>
    
    <filter id="shadow">
      <feDropShadow dx="0" dy="4" stdDeviation="8" flood-opacity="0.2"/>
    </filter>
  </defs>
  
  <!-- Appliquer le gradient au fond -->
  <rect width="512" height="512" rx="110" fill="url(#orangeGradient)"/>
  
  <!-- Icône de scan centrale - Version grande et épurée -->
  <g opacity="0.95" filter="url(#shadow)">
    <!-- Cadre de scan - Coin supérieur gauche -->
    <path d="M 100 100 L 100 180 M 100 100 L 180 100" 
          stroke="#ffffff" 
          stroke-width="24" 
          stroke-linecap="round"
          stroke-linejoin="round"/>
    
    <!-- Cadre de scan - Coin supérieur droit -->
    <path d="M 412 100 L 332 100 M 412 100 L 412 180" 
          stroke="#ffffff" 
          stroke-width="24" 
          stroke-linecap="round"
          stroke-linejoin="round"/>
    
    <!-- Cadre de scan - Coin inférieur gauche -->
    <path d="M 100 412 L 100 332 M 100 412 L 180 412" 
          stroke="#ffffff" 
          stroke-width="24" 
          stroke-linecap="round"
          stroke-linejoin="round"/>
    
    <!-- Cadre de scan - Coin inférieur droit -->
    <path d="M 412 412 L 412 332 M 412 412 L 332 412" 
          stroke="#ffffff" 
          stroke-width="24" 
          stroke-linecap="round"
          stroke-linejoin="round"/>
    
    <!-- Lignes de scan horizontales (effet scanning) -->
    <line x1="140" y1="210" x2="372" y2="210" 
          stroke="#ffffff" 
          stroke-width="10" 
          stroke-linecap="round" 
          opacity="0.6"/>
    
    <line x1="140" y1="256" x2="372" y2="256" 
          stroke="#ffffff" 
          stroke-width="14" 
          stroke-linecap="round" 
          opacity="0.9"/>
    
    <line x1="140" y1="302" x2="372" y2="302" 
          stroke="#ffffff" 
          stroke-width="10" 
          stroke-linecap="round" 
          opacity="0.6"/>
  </g>
  
  <!-- Petit éclair (Zap) en bas à droite pour dynamisme -->
  <g transform="translate(370, 370)" opacity="0.9">
    <path d="M 0 30 L 15 15 L 7 15 L 22 0 L 7 15 L 15 15 Z" 
          fill="#ffffff" 
          stroke="#ffffff" 
          stroke-width="2" 
          stroke-linejoin="round"/>
  </g>
</svg>
